<svg width="12" height="12" viewBox="0 0 12 12" fill="none" xmlns="http://www.w3.org/2000/svg">
<path d="M7.79711 6.15845C7.79711 7.03713 7.06355 7.74951 6.15875 7.74951C5.25395 7.74951 4.52039 7.03713 4.52039 6.15845C4.52039 5.27977 5.25395 4.56738 6.15875 4.56738C7.06355 4.56738 7.79711 5.27977 7.79711 6.15845Z" fill="white"/>
<path d="M9.27009 0.749268H3.04424C1.68906 0.749268 0.58667 1.81975 0.58667 3.13572V9.18139C0.58667 10.4974 1.68906 11.5678 3.04424 11.5678H9.27009C10.6253 11.5678 11.7277 10.4974 11.7277 9.18139V3.13572C11.7277 1.81975 10.6253 0.749268 9.27009 0.749268ZM6.15717 9.14161C4.46327 9.14161 3.0852 7.80343 3.0852 6.15855C3.0852 4.51367 4.46327 3.17549 6.15717 3.17549C7.85107 3.17549 9.22913 4.51367 9.22913 6.15855C9.22913 7.80343 7.85107 9.14161 6.15717 9.14161ZM9.67969 3.33459C9.34033 3.33459 9.0653 3.06751 9.0653 2.73797C9.0653 2.40844 9.34033 2.14136 9.67969 2.14136C10.019 2.14136 10.2941 2.40844 10.2941 2.73797C10.2941 3.06751 10.019 3.33459 9.67969 3.33459Z" fill="white"/>
</svg>
