<svg width="24" height="18" viewBox="0 0 24 18" fill="none" xmlns="http://www.w3.org/2000/svg">
<path d="M0.48842 1.69921C3.69777 4.41138 9.32918 9.18291 10.9843 10.6707C11.2065 10.8715 11.4448 10.9736 11.6922 10.9736C11.9391 10.9736 12.177 10.8724 12.3987 10.6726C14.0553 9.18337 19.6867 4.41138 22.8961 1.69921C23.0959 1.53068 23.1264 1.23444 22.9646 1.0284C22.5906 0.552287 22.0331 0.279297 21.4355 0.279297H1.94895C1.35143 0.279297 0.793826 0.552287 0.419912 1.02845C0.258143 1.23444 0.288606 1.53068 0.48842 1.69921Z" fill="black"/>
<path d="M23.1011 3.16934C22.9285 3.08913 22.7253 3.11712 22.5816 3.23962C20.4798 5.01741 17.7105 7.36633 15.6219 9.15885C15.512 9.25286 15.4502 9.39099 15.4526 9.53578C15.455 9.68011 15.522 9.81633 15.6353 9.90651C17.5759 11.4574 20.5003 13.5908 22.6121 15.1071C22.6963 15.1678 22.7962 15.1987 22.8966 15.1987C22.9727 15.1987 23.0488 15.1811 23.1188 15.145C23.2815 15.0619 23.3838 14.8948 23.3838 14.7125V3.61035C23.3837 3.42095 23.2733 3.24864 23.1011 3.16934Z" fill="black"/>
<path d="M0.771669 15.107C2.88398 13.5907 5.80889 11.4573 7.74898 9.9063C7.8622 9.81611 7.92929 9.67985 7.93166 9.53556C7.93404 9.39077 7.8722 9.25263 7.76231 9.15861C5.67375 7.36604 2.90394 5.01705 0.802132 3.2392C0.657489 3.1167 0.453885 3.08967 0.282616 3.16893C0.110388 3.24822 0 3.42054 0 3.60995V14.7125C0 14.8948 0.102305 15.0619 0.264987 15.145C0.33491 15.1811 0.411045 15.1987 0.48718 15.1987C0.587566 15.1987 0.68745 15.1678 0.771669 15.107Z" fill="black"/>
<path d="M22.7871 16.4299C20.7476 14.974 16.9905 12.2596 14.7479 10.4433C14.5652 10.2948 14.3007 10.2995 14.1209 10.4543C13.6808 10.8374 13.3126 11.1602 13.0514 11.3947C12.2492 12.1172 11.136 12.1172 10.332 11.3937C10.0717 11.1597 9.70353 10.8359 9.26343 10.4542C9.08504 10.2985 8.82005 10.2938 8.63686 10.4433C6.40178 12.2534 2.64052 14.971 0.59767 16.4298C0.483947 16.5115 0.41069 16.6373 0.39644 16.7764C0.382647 16.9155 0.428776 17.0536 0.524413 17.1561C0.893167 17.5526 1.41268 17.78 1.94887 17.78H21.4355C21.9717 17.78 22.4907 17.5526 22.8604 17.1562C22.9555 17.0541 23.0021 16.916 22.9883 16.7769C22.9741 16.6378 22.9008 16.5116 22.7871 16.4299Z" fill="black"/>
</svg>
