<svg width="23" height="24" viewBox="0 0 23 24" fill="none" xmlns="http://www.w3.org/2000/svg">
<path d="M21.9274 17.3513L18.7783 14.1764C17.6537 13.0425 15.7418 13.4962 15.2919 14.9702C14.9545 15.9907 13.8298 16.5577 12.8176 16.3308C10.5683 15.7639 7.53174 12.8158 6.96941 10.4346C6.63201 9.41405 7.30681 8.28016 8.319 7.94004C9.78106 7.48648 10.2309 5.55887 9.10626 4.42497L5.95722 1.25008C5.05749 0.456354 3.7079 0.456354 2.92064 1.25008L0.783783 3.40447C-1.35307 5.67225 1.00871 11.6819 6.29461 17.0112C11.5805 22.3405 17.5412 24.8351 19.7905 22.5672L21.9274 20.4128C22.7147 19.5057 22.7147 18.1451 21.9274 17.3513Z" fill="black"/>
</svg>
