<svg width="16" height="25" viewBox="0 0 16 25" fill="none" xmlns="http://www.w3.org/2000/svg">
<path d="M7.79463 0.654785C3.49675 0.654785 0 4.18767 0 8.52996C0 9.83352 0.322578 11.126 0.93581 12.2724L7.36837 24.0265C7.45401 24.1832 7.61719 24.2803 7.79463 24.2803C7.97206 24.2803 8.13524 24.1832 8.22088 24.0265L14.6558 12.2685C15.2667 11.126 15.5893 9.83347 15.5893 8.52991C15.5893 4.18767 12.0925 0.654785 7.79463 0.654785ZM7.79463 12.4675C5.64569 12.4675 3.89734 10.7011 3.89734 8.52996C3.89734 6.35882 5.64569 4.5924 7.79463 4.5924C9.94356 4.5924 11.6919 6.35882 11.6919 8.52996C11.6919 10.7011 9.94356 12.4675 7.79463 12.4675Z" fill="black"/>
</svg>
